<?xml version="1.0" encoding="utf-8"?>
<!-- Generator: Adobe Illustrator 18.1.1, SVG Export Plug-In . SVG Version: 6.00 Build 0)  -->
<svg version="1.1" xmlns="http://www.w3.org/2000/svg" xmlns:xlink="http://www.w3.org/1999/xlink" x="0px" y="0px"
	 viewBox="0 0 120 60" enable-background="new 0 0 120 60" xml:space="preserve">
<g id="Grid" display="none">
</g>
<g id="Layer_1">
</g>
<g id="Desktop">
</g>
<g id="Guides">
</g>
<g id="Page_1">
	<g id="Layer_1_1_">
		<g>
			<rect x="62" y="2.1" fill-rule="evenodd" clip-rule="evenodd" fill="#B04628" width="55.2" height="55.2"/>
			<g>
				<polygon fill="#FFFFFF" points="65.6,35.5 65.6,23.8 67.9,23.8 67.9,35.5 65.6,35.5 				"/>
				<path fill="#FFFFFF" d="M71.9,29.6l-2-0.4c0.2-0.8,0.6-1.4,1.2-1.8c0.6-0.4,1.4-0.6,2.5-0.6c1,0,1.8,0.1,2.2,0.4
					c0.5,0.2,0.8,0.5,1,0.9c0.2,0.4,0.3,1,0.3,2l0,2.6c0,0.7,0,1.3,0.1,1.7c0.1,0.4,0.2,0.7,0.4,1.1h-2.2c-0.1-0.2-0.1-0.4-0.2-0.7
					c0-0.1-0.1-0.2-0.1-0.3c-0.4,0.4-0.8,0.7-1.2,0.8c-0.4,0.2-0.9,0.3-1.4,0.3c-0.9,0-1.6-0.2-2.1-0.7c-0.5-0.5-0.8-1.1-0.8-1.8
					c0-0.5,0.1-0.9,0.3-1.3s0.6-0.7,1-0.9c0.4-0.2,1-0.4,1.8-0.5c1.1-0.2,1.8-0.4,2.2-0.6v-0.2c0-0.4-0.1-0.7-0.3-0.9
					c-0.2-0.2-0.6-0.3-1.2-0.3c-0.4,0-0.7,0.1-0.9,0.2C72.2,28.9,72,29.2,71.9,29.6L71.9,29.6z M74.9,31.4c-0.3,0.1-0.7,0.2-1.4,0.3
					c-0.6,0.1-1,0.3-1.2,0.4c-0.3,0.2-0.4,0.5-0.4,0.8c0,0.3,0.1,0.6,0.4,0.8c0.2,0.2,0.5,0.3,0.9,0.3c0.4,0,0.8-0.1,1.2-0.4
					c0.3-0.2,0.5-0.5,0.5-0.7c0.1-0.2,0.1-0.6,0.1-1.1V31.4L74.9,31.4z M83.2,27v1.8h-1.5v3.4c0,0.7,0,1.1,0,1.2
					c0,0.1,0.1,0.2,0.2,0.3c0.1,0.1,0.2,0.1,0.4,0.1c0.2,0,0.5-0.1,0.9-0.2l0.2,1.7c-0.5,0.2-1.1,0.3-1.8,0.3
					c-0.4,0-0.8-0.1-1.1-0.2c-0.3-0.1-0.6-0.3-0.7-0.5c-0.2-0.2-0.3-0.5-0.3-0.9c0-0.3-0.1-0.8-0.1-1.6v-3.7h-1V27h1v-1.7l2.3-1.3v3
					H83.2L83.2,27z M84.2,31.1c0-0.7,0.2-1.5,0.6-2.2c0.4-0.7,0.9-1.2,1.6-1.6c0.7-0.4,1.4-0.6,2.3-0.6c1.3,0,2.3,0.4,3.2,1.3
					c0.8,0.8,1.2,1.9,1.2,3.2c0,1.3-0.4,2.4-1.2,3.2c-0.8,0.8-1.9,1.3-3.1,1.3c-0.8,0-1.5-0.2-2.2-0.5c-0.7-0.4-1.2-0.9-1.6-1.6
					C84.4,32.9,84.2,32.1,84.2,31.1L84.2,31.1z M86.5,31.2c0,0.8,0.2,1.5,0.6,1.9c0.4,0.4,0.9,0.7,1.5,0.7s1.1-0.2,1.5-0.7
					c0.4-0.4,0.6-1.1,0.6-2c0-0.8-0.2-1.5-0.6-1.9c-0.4-0.4-0.9-0.7-1.5-0.7s-1.1,0.2-1.5,0.7C86.7,29.8,86.5,30.4,86.5,31.2
					L86.5,31.2z M96.9,35.5h-2.3V27h2.1v1.2c0.4-0.6,0.7-0.9,1-1.1c0.3-0.2,0.6-0.3,1-0.3c0.5,0,1,0.1,1.5,0.4l-0.7,2
					c-0.4-0.2-0.7-0.4-1.1-0.4c-0.3,0-0.6,0.1-0.8,0.3c-0.2,0.2-0.4,0.5-0.5,0.9c-0.1,0.5-0.2,1.4-0.2,2.9V35.5L96.9,35.5z
					 M103.3,35.5h-2.3V27h2.1v1.2c0.4-0.6,0.7-0.9,1-1.1c0.3-0.2,0.6-0.3,1-0.3c0.5,0,1,0.1,1.5,0.4l-0.7,2
					c-0.4-0.2-0.7-0.4-1.1-0.4c-0.3,0-0.6,0.1-0.8,0.3c-0.2,0.2-0.4,0.5-0.5,0.9c-0.1,0.5-0.2,1.4-0.2,2.9V35.5L103.3,35.5z
					 M112.5,32.8l2.2,0.4c-0.3,0.8-0.7,1.4-1.4,1.9c-0.6,0.4-1.4,0.6-2.3,0.6c-1.5,0-2.6-0.5-3.3-1.4c-0.6-0.8-0.8-1.8-0.8-2.9
					c0-1.4,0.4-2.5,1.1-3.3c0.7-0.8,1.7-1.2,2.8-1.2c1.3,0,2.3,0.4,3,1.3c0.7,0.8,1.1,2.1,1.1,3.8h-5.6c0,0.7,0.2,1.2,0.5,1.6
					c0.3,0.4,0.8,0.6,1.3,0.6c0.4,0,0.6-0.1,0.9-0.3C112.2,33.5,112.4,33.2,112.5,32.8L112.5,32.8z M112.6,30.5
					c0-0.7-0.2-1.1-0.5-1.5c-0.3-0.3-0.7-0.5-1.2-0.5c-0.5,0-0.9,0.2-1.2,0.5c-0.3,0.4-0.5,0.8-0.5,1.5H112.6L112.6,30.5z"/>
			</g>
			<path fill="#FFFFFF" d="M5,35.5H2.7V27h2.1v1.2c0.4-0.6,0.7-0.9,1-1.1c0.3-0.2,0.6-0.3,1-0.3c0.5,0,1,0.1,1.5,0.4l-0.7,2
				c-0.4-0.2-0.7-0.4-1.1-0.4c-0.3,0-0.6,0.1-0.8,0.3c-0.2,0.2-0.4,0.5-0.5,0.9C5,30.5,5,31.4,5,32.9V35.5L5,35.5z M8.7,31.1
				c0-0.7,0.2-1.5,0.6-2.2c0.4-0.7,0.9-1.2,1.6-1.6c0.7-0.4,1.4-0.6,2.3-0.6c1.3,0,2.3,0.4,3.2,1.3c0.8,0.8,1.2,1.9,1.2,3.2
				c0,1.3-0.4,2.4-1.2,3.2c-0.8,0.8-1.9,1.3-3.1,1.3c-0.8,0-1.5-0.2-2.2-0.5c-0.7-0.4-1.2-0.9-1.6-1.6C8.9,32.9,8.7,32.1,8.7,31.1
				L8.7,31.1z M11,31.2c0,0.8,0.2,1.5,0.6,1.9c0.4,0.4,0.9,0.7,1.5,0.7c0.6,0,1.1-0.2,1.5-0.7c0.4-0.4,0.6-1.1,0.6-2
				c0-0.8-0.2-1.5-0.6-1.9c-0.4-0.4-0.9-0.7-1.5-0.7c-0.6,0-1.1,0.2-1.5,0.7C11.2,29.8,11,30.4,11,31.2L11,31.2z M27,35.5h-2.1v-1.3
				c-0.3,0.5-0.8,0.8-1.2,1.1c-0.5,0.2-0.9,0.4-1.4,0.4c-1,0-1.8-0.4-2.5-1.2c-0.7-0.8-1-1.9-1-3.3c0-1.4,0.3-2.5,1-3.3
				c0.7-0.7,1.5-1.1,2.6-1.1c0.9,0,1.8,0.4,2.5,1.2v-4.2H27V35.5L27,35.5z M21,31.1c0,0.9,0.1,1.6,0.4,2c0.4,0.6,0.9,0.9,1.5,0.9
				c0.5,0,1-0.2,1.3-0.7c0.4-0.4,0.5-1.1,0.5-2c0-1-0.2-1.7-0.5-2.1c-0.4-0.4-0.8-0.6-1.4-0.6c-0.5,0-1,0.2-1.3,0.6
				C21.2,29.6,21,30.2,21,31.1L21,31.1z M31.4,35.5h-2.3V27h2.1v1.2c0.4-0.6,0.7-0.9,1-1.1c0.3-0.2,0.6-0.3,1-0.3
				c0.5,0,1,0.1,1.5,0.4l-0.7,2c-0.4-0.2-0.7-0.4-1.1-0.4c-0.3,0-0.6,0.1-0.8,0.3c-0.2,0.2-0.4,0.5-0.5,0.9
				c-0.1,0.5-0.2,1.4-0.2,2.9V35.5L31.4,35.5z M35.6,25.8v-2.1h2.3v2.1H35.6L35.6,25.8z M35.6,35.5V27h2.3v8.5H35.6L35.6,35.5z
				 M40,36.1l2.6,0.3c0,0.3,0.1,0.5,0.3,0.6c0.2,0.2,0.6,0.2,1,0.2c0.6,0,1-0.1,1.3-0.3c0.2-0.1,0.3-0.3,0.4-0.6
				c0.1-0.2,0.1-0.5,0.1-1v-1.2c-0.7,0.9-1.5,1.4-2.5,1.4c-1.1,0-2-0.5-2.7-1.4c-0.5-0.8-0.8-1.7-0.8-2.9c0-1.4,0.3-2.5,1-3.3
				c0.7-0.8,1.5-1.1,2.6-1.1c1.1,0,1.9,0.5,2.6,1.4V27H48v7.6c0,1-0.1,1.8-0.2,2.3c-0.2,0.5-0.4,0.9-0.7,1.2
				c-0.3,0.3-0.7,0.5-1.2,0.7C45.4,38.9,44.7,39,44,39c-1.4,0-2.5-0.2-3.1-0.7c-0.6-0.5-0.9-1.1-0.9-1.9C40,36.3,40,36.2,40,36.1
				L40,36.1z M42,31.1c0,0.9,0.2,1.6,0.5,2c0.4,0.4,0.8,0.6,1.3,0.6c0.5,0,1-0.2,1.4-0.6c0.4-0.4,0.6-1.1,0.6-1.9
				c0-0.9-0.2-1.5-0.5-2c-0.4-0.4-0.8-0.6-1.4-0.6c-0.5,0-1,0.2-1.3,0.6C42.2,29.6,42,30.2,42,31.1L42,31.1z M49.7,31.1
				c0-0.7,0.2-1.5,0.6-2.2c0.4-0.7,0.9-1.2,1.6-1.6c0.7-0.4,1.4-0.6,2.3-0.6c1.3,0,2.3,0.4,3.2,1.3c0.8,0.8,1.2,1.9,1.2,3.2
				c0,1.3-0.4,2.4-1.2,3.2c-0.8,0.8-1.9,1.3-3.1,1.3c-0.8,0-1.5-0.2-2.2-0.5c-0.7-0.4-1.2-0.9-1.6-1.6
				C49.9,32.9,49.7,32.1,49.7,31.1L49.7,31.1z M52,31.2c0,0.8,0.2,1.5,0.6,1.9c0.4,0.4,0.9,0.7,1.5,0.7c0.6,0,1.1-0.2,1.5-0.7
				c0.4-0.4,0.6-1.1,0.6-2c0-0.8-0.2-1.5-0.6-1.9c-0.4-0.4-0.9-0.7-1.5-0.7c-0.6,0-1.1,0.2-1.5,0.7C52.2,29.8,52,30.4,52,31.2
				L52,31.2z"/>
			<path fill="#B04628" d="M5.5,56.1c-0.2,0.2-0.4,0.3-0.6,0.4c-0.2,0.1-0.4,0.1-0.7,0.1c-0.4,0-0.7-0.1-0.9-0.3
				C3.1,56.1,3,55.9,3,55.6c0-0.2,0-0.3,0.1-0.5c0.1-0.1,0.2-0.3,0.3-0.3c0.1-0.1,0.3-0.2,0.4-0.2c0.1,0,0.3-0.1,0.5-0.1
				c0.5-0.1,0.8-0.1,1.1-0.2c0-0.1,0-0.1,0-0.2c0-0.2-0.1-0.4-0.2-0.5c-0.2-0.1-0.4-0.2-0.7-0.2c-0.3,0-0.5,0-0.6,0.1
				c-0.1,0.1-0.2,0.3-0.3,0.5L3.1,54c0.1-0.2,0.1-0.5,0.3-0.6c0.1-0.2,0.3-0.3,0.5-0.4c0.2-0.1,0.5-0.1,0.8-0.1c0.3,0,0.5,0,0.7,0.1
				c0.2,0.1,0.3,0.2,0.4,0.3C5.9,53.4,6,53.6,6,53.7c0,0.1,0,0.3,0,0.5v0.8c0,0.6,0,0.9,0,1.1c0,0.1,0.1,0.3,0.2,0.4H5.6
				C5.6,56.4,5.5,56.3,5.5,56.1L5.5,56.1z M5.4,54.8c-0.2,0.1-0.5,0.2-1,0.2c-0.2,0-0.4,0.1-0.5,0.1c-0.1,0-0.2,0.1-0.2,0.2
				c-0.1,0.1-0.1,0.2-0.1,0.3c0,0.2,0.1,0.3,0.2,0.4c0.1,0.1,0.3,0.2,0.5,0.2c0.2,0,0.4,0,0.6-0.2c0.2-0.1,0.3-0.2,0.4-0.4
				c0.1-0.1,0.1-0.3,0.1-0.6V54.8L5.4,54.8z M7,56.5V53h0.5v0.5c0.1-0.2,0.3-0.4,0.4-0.5C8,53,8.1,52.9,8.3,52.9
				c0.2,0,0.4,0.1,0.6,0.2l-0.2,0.6c-0.1-0.1-0.3-0.1-0.4-0.1c-0.1,0-0.2,0-0.4,0.1c-0.1,0.1-0.2,0.2-0.2,0.3
				c-0.1,0.2-0.1,0.4-0.1,0.7v1.8H7L7,56.5z M11.5,57.9v-1.7c-0.1,0.1-0.2,0.2-0.4,0.3c-0.2,0.1-0.3,0.1-0.5,0.1
				c-0.4,0-0.8-0.2-1.1-0.5C9.2,55.8,9,55.3,9,54.7c0-0.4,0.1-0.7,0.2-1c0.1-0.3,0.3-0.5,0.5-0.6c0.2-0.1,0.5-0.2,0.8-0.2
				c0.4,0,0.8,0.2,1,0.6V53h0.5v4.9H11.5L11.5,57.9z M9.6,54.8c0,0.5,0.1,0.8,0.3,1c0.2,0.2,0.4,0.3,0.7,0.3c0.3,0,0.5-0.1,0.7-0.3
				c0.2-0.2,0.3-0.5,0.3-1c0-0.5-0.1-0.8-0.3-1.1c-0.2-0.2-0.4-0.4-0.7-0.4c-0.3,0-0.5,0.1-0.7,0.3C9.7,54,9.6,54.3,9.6,54.8
				L9.6,54.8z M15.3,56.5V56c-0.3,0.4-0.6,0.6-1.1,0.6c-0.2,0-0.4,0-0.6-0.1c-0.2-0.1-0.3-0.2-0.4-0.3c-0.1-0.1-0.1-0.3-0.2-0.4
				c0-0.1,0-0.3,0-0.6V53h0.6v2c0,0.3,0,0.5,0,0.6c0,0.2,0.1,0.3,0.2,0.4c0.1,0.1,0.3,0.1,0.5,0.1c0.2,0,0.3,0,0.5-0.1
				c0.2-0.1,0.3-0.2,0.3-0.4c0.1-0.2,0.1-0.4,0.1-0.7V53h0.6v3.5H15.3L15.3,56.5z M16.8,52.4v-0.7h0.6v0.7H16.8L16.8,52.4z
				 M16.8,56.5V53h0.6v3.5H16.8L16.8,56.5z M19.6,56l0.1,0.5c-0.2,0-0.3,0.1-0.5,0.1c-0.2,0-0.4,0-0.5-0.1c-0.1-0.1-0.2-0.2-0.3-0.3
				c0-0.1-0.1-0.3-0.1-0.7v-2H18V53h0.4v-0.9l0.6-0.4V53h0.6v0.5H19v2.1c0,0.2,0,0.3,0,0.3c0,0,0.1,0.1,0.1,0.1c0,0,0.1,0,0.2,0
				C19.4,56,19.5,56,19.6,56L19.6,56z M22.6,55.4l0.6,0.1c-0.1,0.4-0.3,0.6-0.5,0.8c-0.3,0.2-0.6,0.3-1,0.3c-0.5,0-0.9-0.2-1.2-0.5
				c-0.3-0.3-0.5-0.8-0.5-1.3c0-0.6,0.2-1.1,0.5-1.4c0.3-0.3,0.7-0.5,1.2-0.5c0.5,0,0.9,0.2,1.2,0.5c0.3,0.3,0.4,0.8,0.4,1.4
				c0,0,0,0.1,0,0.2h-2.6c0,0.4,0.1,0.7,0.3,0.9c0.2,0.2,0.4,0.3,0.7,0.3c0.2,0,0.4-0.1,0.6-0.2C22.4,55.8,22.5,55.7,22.6,55.4
				L22.6,55.4z M20.6,54.4h2c0-0.3-0.1-0.5-0.2-0.7c-0.2-0.2-0.4-0.3-0.7-0.3c-0.3,0-0.5,0.1-0.7,0.3C20.8,53.9,20.6,54.1,20.6,54.4
				L20.6,54.4z M25.3,56l0.1,0.5c-0.2,0-0.3,0.1-0.5,0.1c-0.2,0-0.4,0-0.5-0.1c-0.1-0.1-0.2-0.2-0.3-0.3c0-0.1-0.1-0.3-0.1-0.7v-2
				h-0.4V53h0.4v-0.9l0.6-0.4V53h0.6v0.5h-0.6v2.1c0,0.2,0,0.3,0,0.3c0,0,0.1,0.1,0.1,0.1c0,0,0.1,0,0.2,0C25.1,56,25.1,56,25.3,56
				L25.3,56z M25.6,54.8c0-0.7,0.2-1.1,0.5-1.4c0.3-0.3,0.7-0.4,1.1-0.4c0.5,0,0.9,0.2,1.2,0.5c0.3,0.3,0.5,0.8,0.5,1.3
				c0,0.5-0.1,0.8-0.2,1.1c-0.1,0.3-0.3,0.5-0.6,0.6c-0.3,0.1-0.5,0.2-0.9,0.2c-0.5,0-0.9-0.2-1.2-0.5
				C25.8,55.8,25.6,55.4,25.6,54.8L25.6,54.8z M26.2,54.8c0,0.5,0.1,0.8,0.3,1c0.2,0.2,0.4,0.3,0.7,0.3c0.3,0,0.5-0.1,0.7-0.3
				c0.2-0.2,0.3-0.6,0.3-1c0-0.4-0.1-0.8-0.3-1c-0.2-0.2-0.4-0.3-0.7-0.3c-0.3,0-0.5,0.1-0.7,0.3C26.3,54,26.2,54.3,26.2,54.8
				L26.2,54.8z M33.8,56.5V56c-0.3,0.4-0.6,0.6-1.1,0.6c-0.2,0-0.4,0-0.6-0.1c-0.2-0.1-0.3-0.2-0.4-0.3c-0.1-0.1-0.1-0.3-0.2-0.4
				c0-0.1,0-0.3,0-0.6V53h0.6v2c0,0.3,0,0.5,0,0.6c0,0.2,0.1,0.3,0.2,0.4c0.1,0.1,0.3,0.1,0.5,0.1c0.2,0,0.3,0,0.5-0.1
				c0.2-0.1,0.3-0.2,0.3-0.4c0.1-0.2,0.1-0.4,0.1-0.7V53h0.6v3.5H33.8L33.8,56.5z M35.3,56.5V53h0.5v0.5c0.1-0.2,0.3-0.4,0.4-0.5
				c0.1-0.1,0.2-0.1,0.4-0.1c0.2,0,0.4,0.1,0.6,0.2L37,53.7c-0.1-0.1-0.3-0.1-0.4-0.1c-0.1,0-0.2,0-0.4,0.1C36.1,53.8,36,53.9,36,54
				c-0.1,0.2-0.1,0.4-0.1,0.7v1.8H35.3L35.3,56.5z M38.1,56.5h-0.6v-4.9h0.6v1.7c0.3-0.3,0.6-0.5,1-0.5c0.2,0,0.4,0,0.6,0.1
				c0.2,0.1,0.4,0.2,0.5,0.4c0.1,0.2,0.2,0.3,0.3,0.6c0.1,0.2,0.1,0.5,0.1,0.7c0,0.6-0.1,1.1-0.4,1.4c-0.3,0.3-0.7,0.5-1.1,0.5
				c-0.4,0-0.7-0.2-1-0.5V56.5L38.1,56.5z M38.1,54.8c0,0.4,0.1,0.7,0.2,0.9c0.2,0.3,0.4,0.5,0.8,0.5c0.3,0,0.5-0.1,0.7-0.3
				c0.2-0.2,0.3-0.6,0.3-1c0-0.5-0.1-0.8-0.3-1c-0.2-0.2-0.4-0.3-0.7-0.3c-0.3,0-0.5,0.1-0.7,0.3C38.2,54,38.1,54.3,38.1,54.8
				L38.1,54.8z M43.6,56.1c-0.2,0.2-0.4,0.3-0.6,0.4c-0.2,0.1-0.4,0.1-0.7,0.1c-0.4,0-0.7-0.1-0.9-0.3c-0.2-0.2-0.3-0.4-0.3-0.7
				c0-0.2,0-0.3,0.1-0.5c0.1-0.1,0.2-0.3,0.3-0.3c0.1-0.1,0.3-0.2,0.4-0.2c0.1,0,0.3-0.1,0.5-0.1c0.5-0.1,0.8-0.1,1.1-0.2
				c0-0.1,0-0.1,0-0.2c0-0.2-0.1-0.4-0.2-0.5c-0.2-0.1-0.4-0.2-0.7-0.2c-0.3,0-0.5,0-0.6,0.1c-0.1,0.1-0.2,0.3-0.3,0.5L41.2,54
				c0.1-0.2,0.1-0.5,0.3-0.6c0.1-0.2,0.3-0.3,0.5-0.4c0.2-0.1,0.5-0.1,0.8-0.1c0.3,0,0.5,0,0.7,0.1c0.2,0.1,0.3,0.2,0.4,0.3
				c0.1,0.1,0.1,0.2,0.2,0.4c0,0.1,0,0.3,0,0.5v0.8c0,0.6,0,0.9,0,1.1c0,0.1,0.1,0.3,0.2,0.4h-0.6C43.7,56.4,43.6,56.3,43.6,56.1
				L43.6,56.1z M43.6,54.8c-0.2,0.1-0.5,0.2-1,0.2c-0.2,0-0.4,0.1-0.5,0.1c-0.1,0-0.2,0.1-0.2,0.2c-0.1,0.1-0.1,0.2-0.1,0.3
				c0,0.2,0.1,0.3,0.2,0.4c0.1,0.1,0.3,0.2,0.5,0.2c0.2,0,0.4,0,0.6-0.2c0.2-0.1,0.3-0.2,0.4-0.4c0.1-0.1,0.1-0.3,0.1-0.6V54.8
				L43.6,54.8z M45.1,56.5V53h0.5v0.5c0.3-0.4,0.6-0.6,1.1-0.6c0.2,0,0.4,0,0.6,0.1c0.2,0.1,0.3,0.2,0.4,0.3
				c0.1,0.1,0.2,0.3,0.2,0.4c0,0.1,0,0.3,0,0.6v2.2h-0.6v-2.1c0-0.2,0-0.4-0.1-0.5c0-0.1-0.1-0.2-0.2-0.3c-0.1-0.1-0.3-0.1-0.4-0.1
				c-0.3,0-0.5,0.1-0.7,0.2c-0.2,0.2-0.3,0.5-0.3,0.9v1.9H45.1L45.1,56.5z M48.9,52.4v-0.7h0.6v0.7H48.9L48.9,52.4z M48.9,56.5V53
				h0.6v3.5H48.9L48.9,56.5z M50.1,55.5l0.6-0.1c0,0.2,0.1,0.4,0.3,0.5c0.2,0.1,0.4,0.2,0.6,0.2c0.3,0,0.5-0.1,0.6-0.2
				c0.1-0.1,0.2-0.2,0.2-0.4c0-0.1-0.1-0.2-0.2-0.3c-0.1-0.1-0.3-0.1-0.6-0.2c-0.4-0.1-0.7-0.2-0.9-0.3c-0.2-0.1-0.3-0.2-0.4-0.3
				c-0.1-0.1-0.1-0.3-0.1-0.5c0-0.2,0-0.3,0.1-0.4c0.1-0.1,0.2-0.2,0.3-0.3c0.1-0.1,0.2-0.1,0.4-0.2c0.2,0,0.3-0.1,0.5-0.1
				c0.3,0,0.5,0,0.7,0.1c0.2,0.1,0.4,0.2,0.5,0.3c0.1,0.1,0.2,0.3,0.2,0.5L52.3,54c0-0.2-0.1-0.3-0.2-0.4c-0.1-0.1-0.3-0.2-0.5-0.2
				c-0.3,0-0.5,0-0.6,0.1c-0.1,0.1-0.2,0.2-0.2,0.3c0,0.1,0,0.1,0.1,0.2c0,0.1,0.1,0.1,0.2,0.2c0.1,0,0.2,0.1,0.5,0.2
				c0.4,0.1,0.7,0.2,0.9,0.3c0.2,0.1,0.3,0.2,0.4,0.3c0.1,0.1,0.1,0.3,0.1,0.5c0,0.2-0.1,0.4-0.2,0.6c-0.1,0.2-0.3,0.3-0.5,0.4
				c-0.2,0.1-0.5,0.1-0.7,0.1c-0.5,0-0.8-0.1-1-0.3C50.3,56.1,50.2,55.9,50.1,55.5L50.1,55.5z M55.1,56l0.1,0.5
				c-0.2,0-0.3,0.1-0.5,0.1c-0.2,0-0.4,0-0.5-0.1c-0.1-0.1-0.2-0.2-0.3-0.3c0-0.1-0.1-0.3-0.1-0.7v-2h-0.4V53h0.4v-0.9l0.6-0.4V53
				h0.6v0.5h-0.6v2.1c0,0.2,0,0.3,0,0.3c0,0,0.1,0.1,0.1,0.1c0,0,0.1,0,0.2,0C54.9,56,55,56,55.1,56L55.1,56z M57.9,56.1
				c-0.2,0.2-0.4,0.3-0.6,0.4c-0.2,0.1-0.4,0.1-0.7,0.1c-0.4,0-0.7-0.1-0.9-0.3c-0.2-0.2-0.3-0.4-0.3-0.7c0-0.2,0-0.3,0.1-0.5
				c0.1-0.1,0.2-0.3,0.3-0.3c0.1-0.1,0.3-0.2,0.4-0.2c0.1,0,0.3-0.1,0.5-0.1c0.5-0.1,0.8-0.1,1.1-0.2c0-0.1,0-0.1,0-0.2
				c0-0.2-0.1-0.4-0.2-0.5c-0.2-0.1-0.4-0.2-0.7-0.2c-0.3,0-0.5,0-0.6,0.1c-0.1,0.1-0.2,0.3-0.3,0.5L55.5,54
				c0.1-0.2,0.1-0.5,0.3-0.6c0.1-0.2,0.3-0.3,0.5-0.4c0.2-0.1,0.5-0.1,0.8-0.1c0.3,0,0.5,0,0.7,0.1c0.2,0.1,0.3,0.2,0.4,0.3
				c0.1,0.1,0.1,0.2,0.2,0.4c0,0.1,0,0.3,0,0.5v0.8c0,0.6,0,0.9,0,1.1c0,0.1,0.1,0.3,0.2,0.4h-0.6C58,56.4,58,56.3,57.9,56.1
				L57.9,56.1z M57.9,54.8c-0.2,0.1-0.5,0.2-1,0.2c-0.2,0-0.4,0.1-0.5,0.1c-0.1,0-0.2,0.1-0.2,0.2c-0.1,0.1-0.1,0.2-0.1,0.3
				c0,0.2,0.1,0.3,0.2,0.4c0.1,0.1,0.3,0.2,0.5,0.2c0.2,0,0.4,0,0.6-0.2c0.2-0.1,0.3-0.2,0.4-0.4c0.1-0.1,0.1-0.3,0.1-0.6V54.8
				L57.9,54.8z"/>
		</g>
	</g>
</g>
</svg>
